<?xml version="1.0"?><svg width="600" height="600" xmlns="http://www.w3.org/2000/svg">

 <metadata id="metadata7">image/svg+xml</metadata>
 <g>
  <title>Layer 1</title>
  <g id="layer1">
   <path fill="#007f00" fill-rule="evenodd" stroke="#000000" stroke-width="0.999849" stroke-miterlimit="4" stroke-dashoffset="0" id="path2529" d="m167.179108,516.060425c-3.055389,-3.884338 -4.503357,-12.3414 -3.26239,-19.054382c1.234909,-6.680359 1.655243,-7.527863 14.456848,-29.15033c18.922073,-31.960144 25.661682,-49.127228 38.810318,-98.857239c0.576416,-2.180206 -2.219086,-4.904694 -5.032578,-4.904694c-3.65712,0 -6.456238,2.729462 -8.20816,8.004028c-1.976227,5.949738 -3.271286,7.166168 -8.355896,7.848114c-4.851379,0.650757 -10.630432,-1.665985 -12.936905,-5.186096c-1.631149,-2.489471 -1.625931,-3.129059 0.09494,-11.60611c1.719406,-8.469666 1.725815,-9.221375 0.114594,-13.440308c-4.788086,-12.537445 -16.608276,-14.029266 -23.389099,-2.951935c-4.560883,7.450745 -14.497177,20.243652 -20.251175,26.073242c-10.186691,10.320465 -16.845261,10.649811 -23.710373,1.172791c-2.270622,-3.134491 -3.010544,-5.264465 -3.010544,-8.666351c0,-3.919708 0.496109,-4.966339 3.788071,-7.991699c4.849892,-4.457062 11.691948,-8.260193 22.475891,-12.493103c14.682877,-5.763306 21.14946,-10.883301 24.809601,-19.64328c2.722122,-6.514923 1.456161,-14.514221 -2.644257,-16.70871c-6.024017,-3.223969 -13.114868,2.184967 -25.188675,19.213898c-11.201385,15.798492 -17.261681,19.674652 -29.772926,19.042877c-8.648903,-0.436768 -12.751419,-2.753052 -17.477196,-9.867828c-4.309608,-6.48819 -5.554764,-11.25351 -5.122192,-19.603363c0.318665,-6.151306 0.859528,-7.940491 3.598854,-11.904724c3.833267,-5.547455 10.789993,-10.21991 18.523354,-12.441223c3.15667,-0.906708 12.891899,-2.017456 22.223358,-2.535583c20.640335,-1.146027 26.993927,-2.400177 49.678085,-9.80603c11.468475,-3.744141 14.91008,-6.316071 14.91008,-11.142334c0,-2.92572 -4.170425,-7.051361 -7.908493,-7.823547c-2.745789,-0.5672 -23.531174,-2.596191 -26.611725,-2.597717c-2.80545,-0.001404 -7.782623,-4.948059 -8.843155,-8.78894c-1.527191,-5.531082 0.713806,-9.994843 5.690643,-11.334961c5.298401,-1.426697 9.219101,-0.188354 18.995758,5.999847c4.43869,2.809509 11.164215,6.052185 14.945557,7.205933c6.602432,2.014481 7.053314,2.029678 11.365891,0.38269c8.676437,-3.313553 9.721786,-9.158829 3.729736,-20.855209c-4.943848,-9.650299 -14.039261,-19.368942 -21.78717,-23.280106c-11.69635,-5.904282 -19.315903,-15.281525 -24.08197,-29.637238c-1.897369,-5.715027 -2.341995,-9.202011 -2.318375,-18.182739c0.025864,-9.849701 0.332718,-11.768387 2.701797,-16.894135c5.906998,-12.780075 17.622803,-13.135178 25.22287,-0.764481c2.436203,3.965363 3.173248,7.344818 5.944473,27.255066c3.629562,26.077148 5.018066,30.371414 13.055695,40.377396c8.321609,10.359528 15.644409,13.678711 20.177338,9.145782c2.971146,-2.971115 3.393234,-6.227997 1.590561,-12.271652c-0.891083,-2.987442 -1.881393,-8.613693 -2.200638,-12.502792c-0.502182,-6.116562 -0.157532,-8.380585 2.553009,-16.771988c5.080292,-15.727768 4.084137,-22.527588 -5.569473,-38.016113c-5.614899,-9.008789 -6.159195,-12.932655 -2.35817,-17.001068c4.731201,-5.064018 11.524582,-7.065414 13.972092,-4.116325c0.7771,0.936386 1.060455,7.582901 0.893616,20.96067c-0.270035,21.643402 -0.633255,20.006546 7.821594,35.246857c2.907639,5.241211 5.503494,16.399536 5.528961,23.766357c0.009995,2.906464 0.681412,6.026352 1.569733,7.294632c2.809616,4.011292 12.398285,5.151443 16.445068,1.955383c0.731415,-0.577621 3.321838,-4.129623 5.756531,-7.893311c2.532532,-3.914825 6.172699,-7.998444 8.506927,-9.543167c3.49707,-2.314255 4.866852,-2.634888 9.585052,-2.243622c4.586182,0.38031 6.190277,1.075684 9.611664,4.166718c3.228027,2.916336 4.936707,3.710205 7.985535,3.710205c8.077667,0 17.328583,-7.674057 17.328583,-14.374725c0,-1.630402 -1.368866,-6.083206 -3.041992,-9.895172c-4.492096,-10.23494 -4.746124,-14.142471 -1.542419,-23.727295c5.524658,-16.528427 10.473389,-21.120628 22.767151,-21.126854c10.223785,-0.00518 17.242828,4.875069 19.024231,13.227303c1.191772,5.58812 0.325531,9.737518 -4.604889,22.056641c-10.721344,26.788589 -11.384674,35.092102 -3.438171,43.038666c2.043793,2.043793 5.621674,4.286926 7.950928,4.984787c6.842224,2.049957 11.715729,-0.423386 21.013641,-10.664886c9.291748,-10.23465 14.07547,-12.691132 19.941559,-10.240128c3.095642,1.293427 3.859467,2.295288 5.205414,6.827499c0.867523,2.921387 1.577362,6.426437 1.577362,7.789001c0,10.741653 -9.873596,21.390839 -22.728424,24.513718c-2.777924,0.674835 -7.226379,2.311768 -9.885437,3.637604c-15.250854,7.604218 -8.785431,23.459991 9.594971,23.53064c8.147003,0.031357 15.197052,-2.9646 24.029053,-10.211258c16.075684,-13.190125 35.880249,-27.303558 43.776825,-31.196976c12.679871,-6.251831 29.987671,-8.648102 42.163574,-5.83757c12.562286,2.899719 17.425995,15.565353 10.953705,28.524857c-3.388245,6.78418 -4.381561,7.0849 -16.412628,4.968262c-19.296783,-3.394836 -36.134094,-1.87326 -52.935577,4.783707c-14.10498,5.588608 -29.300293,13.825684 -31.908173,17.296844c-5.372772,7.151459 -4.074768,14.696564 3.387024,19.6875c9.005859,6.023651 11.238068,8.611755 11.810822,13.693604c0.760956,6.750214 -0.987213,10.017456 -7.986755,14.927338c-9.234833,6.477844 -11.898529,12.414276 -8.500671,18.944946c2.109283,4.053955 5.513855,6.863281 11.715729,9.667358c8.114807,3.668976 13.704681,4.191223 22.919006,2.141235c11.027405,-2.4534 18.682343,-1.688416 26.237213,2.621887c12.352417,7.047424 18.89682,15.598328 23.127869,30.218628c1.467773,5.071899 1.892212,9.784058 1.865082,20.708099c-0.039642,15.96701 -1.292358,20.920044 -6.702881,26.502228c-12.25882,12.648041 -31.041412,-4.719513 -37.610596,-34.777039c-2.834106,-12.967651 -6.042053,-20.002686 -11.558319,-25.347443c-7.220642,-6.996155 -25.113678,-14.187775 -32.058289,-12.884979c-4.433289,0.831726 -11.065979,7.493835 -12.46106,12.516449c-2.350708,8.463257 -0.759277,13.711182 7.566711,24.95166c15.840179,21.384949 20.411835,30.160278 21.443054,41.160065c0.661377,7.054718 -0.559631,9.776001 -5.650421,12.592194c-5.16272,2.85611 -9.436066,3.566803 -14.021637,2.332031c-5.423584,-1.46048 -8.500244,-5.016968 -8.965729,-10.364227c-2.438507,-28.012573 -4.168549,-35.15799 -10.225281,-42.233917c-6.320648,-7.384216 -16.644318,-10.134338 -24.9758,-6.653229c-6.460815,2.699554 -7.59845,6.492371 -6.107208,20.360687c0.536957,4.993622 0.400085,7.832306 -0.454712,9.429413c-1.285492,2.401947 -6.661438,5.144562 -10.084137,5.144562c-5.492889,0 -13.709198,-12.643311 -18.209808,-28.021637c-2.745361,-9.380829 -5.407501,-12.586517 -10.452454,-12.586517c-5.723724,0 -8.474915,2.373962 -10.39151,8.966583c-2.633026,9.057526 -1.581116,17.463654 4.401917,35.177094c5.833954,17.271851 6.572266,19.051636 15.924194,38.385803c5.258728,10.871948 6.948639,15.46048 7.308136,19.843475c0.614716,7.495178 -1.143829,12.627899 -5.167175,15.081207c-6.092102,3.714752 -9.789795,2.073883 -14.622223,-6.488739c-4.69519,-8.319519 -6.103088,-14.819672 -7.184204,-33.168884c-1.536438,-26.076904 -6.807495,-48.921722 -15.757263,-68.292328c-4.364166,-9.445648 -5.996338,-11.322479 -9.846619,-11.322479c-8.030853,0 -14.173462,8.270142 -14.255463,19.192902c-0.044403,5.914063 0.37207,7.298096 4.194183,13.938873c2.334015,4.055084 4.935913,9.41214 5.782104,11.904602c1.554504,4.578857 1.914337,15.973541 0.651154,20.623535c-1.05838,3.895844 -6.435547,6.057526 -15.072693,6.059387c-9.206802,0.001892 -12.541153,-1.594818 -14.72435,-7.051147c-2.63475,-6.584869 -2.057846,-12.872925 2.400162,-26.160522c4.731339,-14.102234 5.396408,-23.808014 2.125061,-31.010895c-2.011429,-4.428528 -6.394836,-8.506866 -9.143356,-8.506866c-5.92514,0 -15.029587,19.96991 -21.764877,47.739563c-3.59053,14.804108 -4.813583,21.874756 -9.04039,52.265533c-2.81781,20.260315 -4.424469,25.967072 -9.139954,32.464874c-6.619354,9.121338 -21.936813,13.360718 -26.645432,7.374817l0,0z"/>
  </g>
 </g>
</svg>